<svg width="21" height="13" viewBox="0 0 21 13" fill="none" xmlns="http://www.w3.org/2000/svg">
<path d="M19.3237 12.0644H17.1241C16.2443 12.0644 16.0977 11.3312 14.6313 10.0115C13.3116 8.8384 12.725 8.69176 12.4317 8.69176C11.9918 8.69176 11.8452 8.8384 11.8452 9.42495V11.3312C11.8452 11.9178 11.6986 12.211 10.3788 12.211C8.17929 12.211 5.68647 10.8913 3.92683 8.25186C1.28738 4.58595 0.554199 1.65322 0.554199 1.21331C0.554199 0.626769 0.700836 0.333496 1.28738 0.333496H3.48693C4.07347 0.333496 4.22011 0.626769 4.36674 1.21331C5.3932 4.29268 7.15283 6.93213 7.88601 6.93213C8.17929 6.93213 8.32592 6.78549 8.32592 6.05231V2.97295C8.32592 1.50659 7.44611 1.35995 7.44611 0.920041C7.44611 0.626768 7.73938 0.333496 8.03265 0.333496H11.4053C11.8452 0.333496 11.9918 0.626769 11.9918 1.06668V5.31913C11.9918 5.75904 12.1385 5.90568 12.2851 5.90568C12.5784 5.90568 12.725 5.75904 13.3116 5.31913C14.9246 3.55949 15.951 0.920041 15.951 0.920041C16.0977 0.626768 16.3909 0.333496 16.9775 0.333496H19.0304C19.6169 0.333496 19.7636 0.626769 19.6169 1.06668C19.3237 2.23977 16.6842 6.05231 16.8308 6.05231C16.5376 6.34558 16.5376 6.63886 16.8308 6.93213C16.9775 7.2254 17.8573 7.95858 18.2972 8.39849C19.177 9.42495 19.9102 10.3048 20.0568 10.8913C20.2035 11.7711 19.9102 12.0644 19.3237 12.0644Z" fill="white"/>
</svg>
